<?xml version="1.0" encoding="UTF-8" standalone="no"?>
<!-- Generator: Adobe Illustrator 19.1.0, SVG Export Plug-In . SVG Version: 6.00 Build 0)  -->

<svg
   xmlns:dc="http://purl.org/dc/elements/1.1/"
   xmlns:cc="http://creativecommons.org/ns#"
   xmlns:rdf="http://www.w3.org/1999/02/22-rdf-syntax-ns#"
   xmlns:svg="http://www.w3.org/2000/svg"
   xmlns="http://www.w3.org/2000/svg"
   xmlns:sodipodi="http://sodipodi.sourceforge.net/DTD/sodipodi-0.dtd"
   xmlns:inkscape="http://www.inkscape.org/namespaces/inkscape"
   version="1.1"
   id="Layer_1"
   x="0px"
   y="0px"
   viewBox="0 0 64 64"
   style="enable-background:new 0 0 64 64;"
   xml:space="preserve"
   sodipodi:docname="Circle-icons-bolt.svg"
   inkscape:version="0.92.3 (2405546, 2018-03-11)"><metadata
   id="metadata1095"><rdf:RDF><cc:Work
       rdf:about=""><dc:format>image/svg+xml</dc:format><dc:type
         rdf:resource="http://purl.org/dc/dcmitype/StillImage" /></cc:Work></rdf:RDF></metadata><defs
   id="defs1093" /><sodipodi:namedview
   pagecolor="#ffffff"
   bordercolor="#666666"
   borderopacity="1"
   objecttolerance="10"
   gridtolerance="10"
   guidetolerance="10"
   inkscape:pageopacity="0"
   inkscape:pageshadow="2"
   inkscape:window-width="1253"
   inkscape:window-height="480"
   id="namedview1091"
   showgrid="false"
   inkscape:zoom="3.6875"
   inkscape:cx="-1.7627119"
   inkscape:cy="32"
   inkscape:window-x="27"
   inkscape:window-y="368"
   inkscape:window-maximized="0"
   inkscape:current-layer="Layer_1" />
<style
   type="text/css"
   id="style1082">
	.st0{fill:#4F5D73;}
	.st1{opacity:0.2;fill:#231F20;}
	.st2{fill:#F5CF87;}
</style>
<circle
   class="st0"
   cx="32"
   cy="32"
   r="32"
   id="circle1084"
   style="fill:#ffffff" />
<path
   class="st1"
   d="M46.9,17.5C46.7,17.2,46.4,17,46,17H29c-0.4,0-0.7,0.2-0.9,0.6l-8,16c-0.2,0.3-0.1,0.7,0,1  c0.2,0.3,0.5,0.5,0.9,0.5h5.5l-8.4,18.6c-0.2,0.4-0.1,0.9,0.3,1.2c0.2,0.1,0.4,0.2,0.6,0.2c0.2,0,0.5-0.1,0.6-0.2l24-20  c0.3-0.3,0.4-0.7,0.3-1.1C43.8,33.3,43.4,33,43,33h-6.1l9.9-14.4C47,18.3,47.1,17.9,46.9,17.5z"
   id="path1086" />
<path
   class="st2"
   d="M46.9,15.5C46.7,15.2,46.4,15,46,15H29c-0.4,0-0.7,0.2-0.9,0.6l-8,16c-0.2,0.3-0.1,0.7,0,1  c0.2,0.3,0.5,0.5,0.9,0.5h5.5l-8.4,18.6c-0.2,0.4-0.1,0.9,0.3,1.2c0.2,0.1,0.4,0.2,0.6,0.2c0.2,0,0.5-0.1,0.6-0.2l24-20  c0.3-0.3,0.4-0.7,0.3-1.1C43.8,31.3,43.4,31,43,31h-6.1l9.9-14.4C47,16.3,47.1,15.9,46.9,15.5z"
   id="path1088"
   style="fill:#f0ede3" />
</svg>