<?xml version="1.0" encoding="UTF-8" standalone="no"?>
<!-- Created with Inkscape (http://www.inkscape.org/) -->

<svg
   xmlns:dc="http://purl.org/dc/elements/1.1/"
   xmlns:cc="http://creativecommons.org/ns#"
   xmlns:rdf="http://www.w3.org/1999/02/22-rdf-syntax-ns#"
   xmlns:svg="http://www.w3.org/2000/svg"
   xmlns="http://www.w3.org/2000/svg"
   xmlns:sodipodi="http://sodipodi.sourceforge.net/DTD/sodipodi-0.dtd"
   xmlns:inkscape="http://www.inkscape.org/namespaces/inkscape"
   width="118.65765mm"
   height="165.31305mm"
   viewBox="0 0 118.65765 165.31305"
   version="1.1"
   id="svg2748"
   inkscape:version="0.92.3 (2405546, 2018-03-11)"
   sodipodi:docname="leaf.svg">
  <defs
     id="defs2742" />
  <sodipodi:namedview
     id="base"
     pagecolor="#ffffff"
     bordercolor="#666666"
     borderopacity="1.0"
     inkscape:pageopacity="0.0"
     inkscape:pageshadow="2"
     inkscape:zoom="0.35"
     inkscape:cx="-281.42854"
     inkscape:cy="298.54419"
     inkscape:document-units="mm"
     inkscape:current-layer="layer1"
     showgrid="false"
     fit-margin-top="0"
     fit-margin-left="0"
     fit-margin-right="0"
     fit-margin-bottom="0"
     inkscape:window-width="1366"
     inkscape:window-height="705"
     inkscape:window-x="-8"
     inkscape:window-y="-8"
     inkscape:window-maximized="1" />
  <metadata
     id="metadata2745">
    <rdf:RDF>
      <cc:Work
         rdf:about="">
        <dc:format>image/svg+xml</dc:format>
        <dc:type
           rdf:resource="http://purl.org/dc/dcmitype/StillImage" />
        <dc:title></dc:title>
      </cc:Work>
    </rdf:RDF>
  </metadata>
  <g
     inkscape:label="Layer 1"
     inkscape:groupmode="layer"
     id="layer1"
     transform="translate(-38.175588,-62.510107)">
    <path
       style="fill:#000000;stroke-width:0.26458335"
       d="m 48.04078,227.18279 c 0,-0.84539 1.41777,-7.51701 2.27207,-10.69171 1.80242,-6.69806 3.85673,-12.26075 6.41908,-17.38164 2.33611,-4.66875 3.64264,-6.72639 6.099359,-9.60587 2.305471,-2.70219 3.127534,-3.46211 6.376157,-5.89416 14.317731,-10.71882 25.472756,-22.55534 35.512204,-37.68175 7.36113,-11.091 13.57473,-23.40576 17.88264,-35.4417 1.77271,-4.95281 2.05965,-6.68077 0.4987,-3.00322 -2.0369,4.79889 -2.6438,6.11678 -4.56911,9.92188 -5.26679,10.40907 -13.09319,22.21071 -20.178068,30.42708 -0.25097,0.29104 -1.04715,1.24354 -1.7693,2.11667 -3.77757,4.56731 -13.133362,14.0847 -18.116649,18.42956 -1.236927,1.07846 -2.606146,2.29606 -3.042709,2.70578 -1.051541,0.98689 -7.945665,6.53475 -10.451042,8.4102 -5.322332,3.98413 -9.201652,8.01192 -13.082052,13.58274 -1.23904,1.7788 -2.32754,3.42895 -2.41889,3.66701 -0.29415,0.76656 -0.75913,0.46703 -1.68977,-1.08852 -3.92558,-6.56159 -7.41047,-16.67971 -8.72549,-25.33386 -2.19425,-14.44033 -0.3092,-27.32829 5.80487,-39.6875 4.88814,-9.88107 12.08288,-18.54687 21.940119,-26.42607 4.937236,-3.94648 12.131932,-8.718337 17.420093,-11.553806 8.7608,-4.697466 14.18453,-7.15965 24.142788,-10.95998 4.43682,-1.693209 5.35398,-2.09364 8.71694,-3.805844 3.02582,-1.540556 8.67107,-5.021391 11.2591,-6.942313 0.58208,-0.432041 1.35599,-0.989703 1.71979,-1.239247 1.1642,-0.798563 5.63943,-4.462611 7.14375,-5.848867 0.80037,-0.737549 1.57622,-1.34394 1.72412,-1.347537 0.22704,-0.0055 1.87999,2.449103 2.22008,3.296795 0.0592,0.147698 0.37904,0.700559 0.71062,1.228579 1.2184,1.940156 4.86434,9.466875 6.39175,13.195171 7.93006,19.356756 10.46973,40.516289 7.17698,59.795829 -0.9669,5.66139 -4.06486,14.27164 -7.4568,20.72497 -7.43641,14.14811 -17.40114,24.7436 -30.08133,31.98545 -8.62458,4.92563 -19.727928,8.30196 -30.276351,9.2065 -4.276307,0.3667 -13.338323,0.3537 -17.624669,-0.0253 l -3.508033,-0.31017 -0.492837,0.62854 c -1.07428,1.37008 -3.978982,7.70541 -5.10843,11.14178 -0.65694,1.99875 -1.51809,5.22614 -1.91367,7.17199 l -0.71924,3.53791 -2.65599,0.86925 c -1.4608,0.47809 -3.75732,1.31847 -5.10339,1.8675 l -2.44739,0.99824 v -0.64037 z M 124.6861,103.99355 c -0.0845,-0.21107 -0.14715,-0.14838 -0.15985,0.15985 -0.0115,0.27891 0.0511,0.43518 0.13896,0.34727 0.0879,-0.0879 0.0973,-0.31613 0.0209,-0.50712 z"
       id="path3304"
       inkscape:connector-curvature="0" />
  </g>
</svg>
