<?xml version="1.0" encoding="UTF-8" standalone="no"?>
<!-- Generator: Adobe Illustrator 19.2.1, SVG Export Plug-In . SVG Version: 6.00 Build 0)  -->

<svg
   xmlns:dc="http://purl.org/dc/elements/1.1/"
   xmlns:cc="http://creativecommons.org/ns#"
   xmlns:rdf="http://www.w3.org/1999/02/22-rdf-syntax-ns#"
   xmlns:svg="http://www.w3.org/2000/svg"
   xmlns="http://www.w3.org/2000/svg"
   xmlns:sodipodi="http://sodipodi.sourceforge.net/DTD/sodipodi-0.dtd"
   xmlns:inkscape="http://www.inkscape.org/namespaces/inkscape"
   version="1.1"
   id="layer"
   x="0px"
   y="0px"
   viewBox="0 0 623.59998 321.39999"
   xml:space="preserve"
   sodipodi:docname="sustainable-forestry-initiative-sfi-vector-logo.svg"
   width="623.59998"
   height="321.39999"
   inkscape:version="0.92.3 (2405546, 2018-03-11)"><metadata
   id="metadata77"><rdf:RDF><cc:Work
       rdf:about=""><dc:format>image/svg+xml</dc:format><dc:type
         rdf:resource="http://purl.org/dc/dcmitype/StillImage" /><dc:title></dc:title></cc:Work></rdf:RDF></metadata><defs
   id="defs75" /><sodipodi:namedview
   pagecolor="#ffffff"
   bordercolor="#666666"
   borderopacity="1"
   objecttolerance="10"
   gridtolerance="10"
   guidetolerance="10"
   inkscape:pageopacity="0"
   inkscape:pageshadow="2"
   inkscape:window-width="1366"
   inkscape:window-height="705"
   id="namedview73"
   showgrid="false"
   fit-margin-top="0"
   fit-margin-left="0"
   fit-margin-right="0"
   fit-margin-bottom="0"
   inkscape:zoom="0.72392638"
   inkscape:cx="265.07025"
   inkscape:cy="131.47274"
   inkscape:window-x="-8"
   inkscape:window-y="-8"
   inkscape:window-maximized="1"
   inkscape:current-layer="layer" />
<style
   type="text/css"
   id="style2">
	.st0{fill:#008054;}
	.st1{fill:#020000;}
	.st2{fill:#21110D;}
</style>
<g
   id="g70"
   transform="translate(-14.9,-166.9)">
	<path
   class="st0"
   d="m 104.6,166.9 c -3,0 -5.8,1.3 -7.8,3.4 -54.5,59.3 -81.9,112.9 -81.9,160 0,9.3 1.1,18.3 3.2,27 12.5,51.3 57.7,76.7 75.3,84.8 v 35.6 c 0,5.9 4.7,10.6 10.6,10.6 5.9,0 10.6,-4.8 10.6,-10.6 V 435 c 0,-4.5 -2.8,-8.4 -7,-10 -0.6,-0.2 -56.5,-21.4 -68.9,-73 -1.7,-7.1 -2.6,-14.4 -2.6,-22 0,-39.2 23,-85.1 68.5,-136.7 45.1,51 68.4,95.3 68.4,129.8 0,7.2 -1,14 -3.1,20.3 -9.2,28.5 -37.4,42.7 -54.1,48.8 v -22.1 c 8.9,-4.5 39.1,-19.6 39.1,-19.6 2.8,-1.4 4.9,-4 5.6,-7 0.2,-0.8 0.3,-1.7 0.3,-2.5 0,-2.2 -0.7,-4.5 -2.1,-6.3 0,0 -17.6,-23.8 -26.4,-35.7 4.3,-2.5 8.6,-5 8.6,-5 2.5,-1.5 4.3,-3.9 5,-6.8 0.2,-0.8 0.3,-1.6 0.3,-2.4 0,-2.1 -0.6,-4.1 -1.8,-5.9 L 114,233.2 c -1.9,-2.9 -5.2,-4.7 -8.6,-4.7 -3.5,-0.1 -6.8,1.6 -8.8,4.4 l -33.1,45.7 c -1.3,1.8 -2,4 -2,6.2 0,0.7 0.1,1.5 0.2,2.2 0.6,3 2.4,5.5 5,7 0,0 4.3,2.5 8.6,5 -8.8,11.9 -26.4,35.7 -26.4,35.7 -1.4,1.8 -2.1,4.1 -2.1,6.3 0,0.8 0.1,1.6 0.3,2.3 0.7,3 2.6,5.6 5.3,7 l 24.8,13.4 c 5.2,2.8 11.6,0.9 14.4,-4.3 0.9,-1.6 1.3,-3.3 1.3,-5 0,-3.8 -2,-7.4 -5.6,-9.4 0,0 -7.1,-3.9 -14,-7.6 8.9,-12.1 26.1,-35.3 26.1,-35.3 1.4,-1.8 2.1,-4.1 2.1,-6.3 0,-0.7 -0.1,-1.4 -0.2,-2.1 -0.6,-3 -2.4,-5.5 -5.1,-7 0,0 -4.4,-2.6 -8.7,-5.1 5.7,-7.9 10.5,-14.4 17.3,-23.8 6.3,9.5 10.7,15.9 15.8,23.6 -4.5,2.7 -9.1,5.3 -9.1,5.3 -2.6,1.5 -4.4,4.1 -5.1,7 -0.1,0.7 -0.2,1.4 -0.2,2.1 0,2.3 0.7,4.5 2.1,6.3 0,0 16.9,22.8 25.9,35 -12.7,6.4 -33.7,16.9 -33.7,16.9 -3.6,1.8 -5.9,5.5 -5.9,9.5 v 43 c 0,3.2 1.4,6.2 3.9,8.2 2.5,2 5.7,2.8 8.8,2.2 2.7,-0.5 65.6,-13.9 82.8,-66.8 15.2,-46.7 -11,-107.3 -77.7,-179.9 -2,-2.1 -4.8,-3.3 -7.8,-3.3"
   id="path4"
   inkscape:connector-curvature="0"
   style="fill:#008054" />
	<path
   class="st1"
   d="m 121,424.7 c 0.5,1.4 1.4,2.1 2.9,2.1 0.7,0 1.4,-0.1 1.9,-0.5 0.5,-0.4 0.8,-1 0.8,-1.6 0,-0.6 -0.2,-1.1 -0.7,-1.4 -0.4,-0.3 -0.8,-0.4 -1.3,-0.6 l -1.1,-0.3 c -0.7,-0.2 -1.3,-0.3 -1.3,-1.2 0,-0.8 0.9,-1.1 1.5,-1.1 0.8,0 1.6,0.5 1.8,1.3 l 0.8,-0.2 c -0.4,-1.2 -1.4,-1.8 -2.6,-1.8 -1.3,0 -2.4,0.6 -2.4,2 0,0.5 0.2,1 0.6,1.3 0.4,0.4 0.8,0.5 1.3,0.6 l 1.2,0.3 c 0.6,0.2 1.2,0.4 1.2,1.2 0,0.4 -0.2,0.7 -0.4,0.9 -0.3,0.3 -0.9,0.4 -1.3,0.4 -1,0 -1.8,-0.5 -2.1,-1.5 z"
   id="path6"
   inkscape:connector-curvature="0"
   style="fill:#020000" />
	<polygon
   class="st1"
   points="127.9,419.4 129.3,419.4 131.4,425.2 133.5,419.4 134.9,419.4 134.9,426.7 134,426.7 134,420.4 133.9,420.4 131.7,426.7 131,426.7 128.7,420.4 128.7,420.4 128.7,426.7 127.9,426.7 "
   id="polygon8"
   style="fill:#020000" />
	<path
   class="st1"
   d="m 246.2,272.2 c 0,1.6 -1.2,3 -2.9,3 -3,0 -4,-3.5 -10.8,-3.5 -5,0 -8.7,3.1 -8.7,7.8 0,12.1 26,6.3 26,24.7 0,9.1 -6.6,17.3 -18.5,17.3 -7.2,0 -15.2,-2.8 -15.2,-6.6 0,-1.8 0.9,-3.5 2.8,-3.5 2.3,0 5.5,4.2 12.4,4.2 7,0 11.2,-5.1 11.2,-11.1 0,-13 -26,-6.7 -26,-24.6 0,-6.4 6,-14.1 16.1,-14.1 6.9,0 13.6,2.9 13.6,6.4"
   id="path10"
   inkscape:connector-curvature="0"
   style="fill:#020000" />
	<path
   class="st1"
   d="m 255.9,269.5 c 0,-2.2 1.3,-3.6 3.4,-3.6 2.1,0 3.4,1.4 3.4,3.6 V 302 c 0,8.6 5.8,13.7 14.4,13.7 8.6,0 14.5,-5.1 14.5,-13.7 v -32.5 c 0,-2.2 1.3,-3.6 3.4,-3.6 2.1,0 3.4,1.4 3.4,3.6 v 29.9 c 0,18.4 -11.8,22.1 -21.2,22.1 -9.4,0 -21.2,-3.7 -21.2,-22.1 v -29.9 z"
   id="path12"
   inkscape:connector-curvature="0"
   style="fill:#020000" />
	<path
   class="st1"
   d="m 336,272.2 c 0,1.6 -1.2,3 -2.9,3 -3,0 -4,-3.5 -10.8,-3.5 -5,0 -8.7,3.1 -8.7,7.8 0,12.1 26,6.3 26,24.7 0,9.1 -6.6,17.3 -18.5,17.3 -7.2,0 -15.2,-2.8 -15.2,-6.6 0,-1.8 0.9,-3.5 2.8,-3.5 2.3,0 5.5,4.2 12.4,4.2 7,0 11.2,-5.1 11.2,-11.1 0,-13 -26,-6.7 -26,-24.6 0,-6.4 6,-14.1 16.1,-14.1 6.9,0 13.6,2.9 13.6,6.4"
   id="path14"
   inkscape:connector-curvature="0"
   style="fill:#020000" />
	<path
   class="st1"
   d="m 356.5,272.6 h -10.2 c -1.9,0 -3.3,-1 -3.3,-3.1 0,-2.2 1.4,-3.2 3.3,-3.2 h 27.2 c 1.9,0 3.3,1 3.3,3.2 0,2.2 -1.4,3.1 -3.3,3.1 h -10.2 v 45.3 c 0,2.2 -1.3,3.6 -3.4,3.6 -2.1,0 -3.4,-1.4 -3.4,-3.6 z"
   id="path16"
   inkscape:connector-curvature="0"
   style="fill:#020000" />
	<path
   class="st1"
   d="m 379.6,319 c -0.5,1.5 -1.5,2.5 -3.3,2.5 -1.8,0 -3.2,-1.1 -3.2,-2.8 0,-0.9 0.7,-2.7 0.9,-3.4 L 391,270 c 0.8,-2.4 2.2,-4.2 4.8,-4.2 2.6,0 4,1.8 4.8,4.2 l 17,45.3 c 0.2,0.7 0.9,2.5 0.9,3.4 0,1.8 -1.5,2.8 -3.2,2.8 -1.8,0 -2.8,-1.1 -3.3,-2.5 l -3.5,-9.8 h -25.4 z m 16.3,-45.3 h -0.2 l -10.5,29.6 h 21.2 z"
   id="path18"
   inkscape:connector-curvature="0"
   style="fill:#020000" />
	<path
   class="st1"
   d="m 432.1,317.9 c 0,2.2 -1.3,3.6 -3.4,3.6 -2.1,0 -3.4,-1.4 -3.4,-3.6 v -48.4 c 0,-2.2 1.3,-3.6 3.4,-3.6 2.1,0 3.4,1.4 3.4,3.6 z"
   id="path20"
   inkscape:connector-curvature="0"
   style="fill:#020000" />
	<path
   class="st1"
   d="m 449.3,317.9 c 0,2.2 -1.3,3.6 -3.4,3.6 -2.1,0 -3.4,-1.4 -3.4,-3.6 v -48 c 0,-2.7 0.9,-4 3.1,-4 2,0 2.9,0.8 4.8,3.5 l 27.7,39.7 h 0.2 v -39.7 c 0,-2.2 1.3,-3.6 3.4,-3.6 2.1,0 3.4,1.4 3.4,3.6 v 48 c 0,2.7 -0.9,4 -3.1,4 -2,0 -2.9,-0.8 -4.8,-3.5 l -27.7,-39.7 h -0.2 z"
   id="path22"
   inkscape:connector-curvature="0"
   style="fill:#020000" />
	<path
   class="st1"
   d="m 496.7,319 c -0.5,1.5 -1.5,2.5 -3.3,2.5 -1.8,0 -3.2,-1.1 -3.2,-2.8 0,-0.9 0.7,-2.7 0.9,-3.4 l 17,-45.3 c 0.8,-2.4 2.2,-4.2 4.8,-4.2 2.6,0 4,1.8 4.8,4.2 l 17,45.3 c 0.2,0.7 0.9,2.5 0.9,3.4 0,1.8 -1.5,2.8 -3.2,2.8 -1.8,0 -2.8,-1.1 -3.3,-2.5 l -3.5,-9.8 H 500.2 Z M 513,273.7 h -0.2 l -10.5,29.6 h 21.2 z"
   id="path24"
   inkscape:connector-curvature="0"
   style="fill:#020000" />
	<path
   class="st1"
   d="m 540.9,270 c 0,-2.1 1.1,-3.7 3.6,-3.7 h 11.9 c 9.7,0 14.8,6.8 14.8,13.1 0,6 -3.1,10.6 -7.6,12 v 0.2 c 6.6,0.7 11.8,6.3 11.8,13.5 0,8.6 -6.4,16 -17.9,16 h -13 c -2.5,0 -3.6,-1.6 -3.6,-3.7 z m 6.8,19.4 h 7.7 c 5.8,0 9.1,-3.8 9.1,-8.8 0,-4.9 -2.9,-8.4 -8.8,-8.4 h -7.9 v 17.2 z m 0,25.8 h 9.5 c 6.6,0 11.5,-4.1 11.5,-10.1 0,-5.6 -4.1,-10.1 -11.1,-10.1 h -9.8 v 20.2 z"
   id="path26"
   inkscape:connector-curvature="0"
   style="fill:#020000" />
	<path
   class="st1"
   d="m 589,314.7 h 14.5 c 1.9,0 3.3,1 3.3,3.1 0,2.2 -1.4,3.2 -3.3,3.2 h -17.6 c -2.5,0 -3.6,-1.6 -3.6,-3.7 v -47.9 c 0,-2.2 1.3,-3.6 3.4,-3.6 2.1,0 3.4,1.4 3.4,3.6 v 45.3 z"
   id="path28"
   inkscape:connector-curvature="0"
   style="fill:#020000" />
	<path
   class="st1"
   d="m 618.9,314.7 h 16.3 c 1.9,0 3.3,1 3.3,3.1 0,2.2 -1.4,3.2 -3.3,3.2 h -19.4 c -2.5,0 -3.6,-1.6 -3.6,-3.7 V 270 c 0,-2.1 1.1,-3.7 3.6,-3.7 h 19.4 c 1.9,0 3.3,1 3.3,3.1 0,2.2 -1.4,3.2 -3.3,3.2 h -16.3 v 17.9 h 14.8 c 1.9,0 3.3,1 3.3,3.1 0,2.1 -1.4,3.1 -3.3,3.1 h -14.8 z"
   id="path30"
   inkscape:connector-curvature="0"
   style="fill:#020000" />
	<path
   class="st1"
   d="m 225.6,392.5 c 0,2.2 -1.3,3.6 -3.4,3.6 -2.1,0 -3.4,-1.4 -3.4,-3.6 v -47.9 c 0,-2.1 1.1,-3.7 3.6,-3.7 h 19.2 c 1.9,0 3.3,1 3.3,3.1 0,2.1 -1.4,3.1 -3.3,3.1 H 225.5 V 365 h 14.2 c 1.9,0 3.3,1 3.3,3.2 0,2.1 -1.4,3.1 -3.3,3.1 h -14.2 v 21.2 z"
   id="path32"
   inkscape:connector-curvature="0"
   style="fill:#020000" />
	<path
   class="st1"
   d="m 272.1,340.5 c 15.6,0 24,13.6 24,27.8 0,14.2 -8.4,27.8 -24,27.8 -15.6,0 -24,-13.6 -24,-27.8 0,-14.2 8.4,-27.8 24,-27.8 m 0,49.8 c 12.3,0 16.8,-11.5 16.8,-22 0,-10.5 -4.5,-22 -16.8,-22 -12.3,0 -16.8,11.5 -16.8,22 0,10.4 4.5,22 16.8,22"
   id="path34"
   inkscape:connector-curvature="0"
   style="fill:#020000" />
	<path
   class="st1"
   d="m 308.1,392.5 c 0,2.2 -1.3,3.6 -3.4,3.6 -2.1,0 -3.4,-1.4 -3.4,-3.6 v -47.9 c 0,-2.1 1.1,-3.7 3.6,-3.7 h 12.5 c 8.6,0 16.8,5.8 16.8,14.8 0,11.1 -6.8,15.2 -14.9,15.5 l -2.9,0.1 17.5,19.1 c 0.9,1 1.3,1.9 1.3,3.1 0,1.5 -1.4,2.6 -3.1,2.6 -1.4,0 -2.3,-0.7 -3.1,-1.5 l -20.9,-22.9 z m 0,-26.3 h 9.2 c 7.1,0 10.1,-3 10.1,-10.1 0,-5.1 -4,-9.4 -10.3,-9.4 H 308 v 19.5 z"
   id="path36"
   inkscape:connector-curvature="0"
   style="fill:#020000" />
	<path
   class="st1"
   d="m 349.5,389.3 h 16.3 c 1.9,0 3.3,1 3.3,3.1 0,2.2 -1.4,3.2 -3.3,3.2 h -19.4 c -2.5,0 -3.6,-1.6 -3.6,-3.7 v -47.4 c 0,-2.1 1.1,-3.7 3.6,-3.7 h 19.4 c 1.9,0 3.3,1 3.3,3.1 0,2.2 -1.4,3.2 -3.3,3.2 H 349.5 V 365 h 14.8 c 1.9,0 3.3,1 3.3,3.1 0,2.1 -1.4,3.1 -3.3,3.1 h -14.8 z"
   id="path38"
   inkscape:connector-curvature="0"
   style="fill:#020000" />
	<path
   class="st1"
   d="m 404.2,346.8 c 0,1.6 -1.2,3 -2.9,3 -3,0 -4,-3.5 -10.8,-3.5 -5,0 -8.7,3.1 -8.7,7.8 0,12.1 26,6.3 26,24.7 0,9.1 -6.6,17.3 -18.5,17.3 -7.2,0 -15.2,-2.8 -15.2,-6.6 0,-1.8 0.9,-3.5 2.8,-3.5 2.3,0 5.5,4.2 12.5,4.2 7,0 11.2,-5.1 11.2,-11.2 0,-13 -26,-6.7 -26,-24.6 0,-6.4 6,-14.1 16.1,-14.1 6.8,0.1 13.5,3 13.5,6.5"
   id="path40"
   inkscape:connector-curvature="0"
   style="fill:#020000" />
	<path
   class="st1"
   d="m 423.1,347.2 h -10.2 c -1.9,0 -3.3,-1 -3.3,-3.1 0,-2.2 1.4,-3.2 3.3,-3.2 h 27.2 c 1.9,0 3.3,1 3.3,3.2 0,2.2 -1.4,3.1 -3.3,3.1 h -10.2 v 45.3 c 0,2.2 -1.3,3.6 -3.4,3.6 -2.1,0 -3.4,-1.4 -3.4,-3.6 z"
   id="path42"
   inkscape:connector-curvature="0"
   style="fill:#020000" />
	<path
   class="st1"
   d="m 454.8,392.5 c 0,2.2 -1.3,3.6 -3.4,3.6 -2.1,0 -3.4,-1.4 -3.4,-3.6 v -47.9 c 0,-2.1 1.1,-3.7 3.6,-3.7 h 12.5 c 8.6,0 16.8,5.8 16.8,14.8 0,11.1 -6.8,15.2 -14.9,15.5 l -2.9,0.1 17.4,19.1 c 0.9,1 1.3,1.9 1.3,3.1 0,1.5 -1.4,2.6 -3.1,2.6 -1.4,0 -2.3,-0.7 -3.1,-1.5 l -20.9,-22.9 v 20.8 z m 0,-26.3 h 9.2 c 7.1,0 10.1,-3 10.1,-10.1 0,-5.1 -4,-9.4 -10.3,-9.4 h -9.1 v 19.5 z"
   id="path44"
   inkscape:connector-curvature="0"
   style="fill:#020000" />
	<path
   class="st1"
   d="M 497.7,370 483,346.1 c -0.8,-1.2 -1.1,-2 -1.1,-2.8 0,-1.7 1.4,-2.8 3.1,-2.8 1.2,0 2.4,0.5 3.4,2.1 l 12.7,20.7 12.7,-20.7 c 1,-1.7 2.1,-2.1 3.4,-2.1 1.7,0 3.1,1.1 3.1,2.8 0,0.8 -0.3,1.6 -1.1,2.8 L 504.5,370 v 22.5 c 0,2.2 -1.3,3.6 -3.4,3.6 -2.1,0 -3.4,-1.4 -3.4,-3.6 V 370 Z"
   id="path46"
   inkscape:connector-curvature="0"
   style="fill:#020000" />
	<path
   class="st1"
   d="m 225.6,467.1 c 0,2.2 -1.3,3.6 -3.4,3.6 -2.1,0 -3.4,-1.4 -3.4,-3.6 v -48.4 c 0,-2.2 1.3,-3.6 3.4,-3.6 2.1,0 3.4,1.4 3.4,3.6 z"
   id="path48"
   inkscape:connector-curvature="0"
   style="fill:#020000" />
	<path
   class="st1"
   d="m 242.9,467.1 c 0,2.2 -1.3,3.6 -3.4,3.6 -2.1,0 -3.4,-1.4 -3.4,-3.6 v -48 c 0,-2.7 0.9,-4 3.1,-4 2,0 2.9,0.8 4.8,3.5 l 27.7,39.7 h 0.2 v -39.7 c 0,-2.2 1.3,-3.6 3.4,-3.6 2.1,0 3.4,1.4 3.4,3.6 v 48 c 0,2.7 -0.9,4 -3.1,4 -2,0 -2.9,-0.9 -4.8,-3.5 L 243,427.4 h -0.2 v 39.7 z"
   id="path50"
   inkscape:connector-curvature="0"
   style="fill:#020000" />
	<path
   class="st1"
   d="m 295.7,467.1 c 0,2.2 -1.3,3.6 -3.4,3.6 -2.1,0 -3.4,-1.4 -3.4,-3.6 v -48.4 c 0,-2.2 1.3,-3.6 3.4,-3.6 2.1,0 3.4,1.4 3.4,3.6 z"
   id="path52"
   inkscape:connector-curvature="0"
   style="fill:#020000" />
	<path
   class="st1"
   d="m 315.4,421.8 h -10.2 c -1.9,0 -3.3,-1 -3.3,-3.2 0,-2.1 1.4,-3.1 3.3,-3.1 h 27.2 c 1.9,0 3.3,1 3.3,3.1 0,2.2 -1.4,3.2 -3.3,3.2 h -10.2 v 45.3 c 0,2.2 -1.3,3.6 -3.4,3.6 -2.1,0 -3.4,-1.4 -3.4,-3.6 z"
   id="path54"
   inkscape:connector-curvature="0"
   style="fill:#020000" />
	<path
   class="st1"
   d="m 348.6,467.1 c 0,2.2 -1.3,3.6 -3.4,3.6 -2.1,0 -3.4,-1.4 -3.4,-3.6 v -48.4 c 0,-2.2 1.3,-3.6 3.4,-3.6 2.1,0 3.4,1.4 3.4,3.6 z"
   id="path56"
   inkscape:connector-curvature="0"
   style="fill:#020000" />
	<path
   class="st1"
   d="m 360.4,468.2 c -0.5,1.5 -1.5,2.5 -3.3,2.5 -1.8,0 -3.2,-1.1 -3.2,-2.9 0,-0.9 0.7,-2.7 0.9,-3.4 l 17,-45.3 c 0.9,-2.4 2.2,-4.1 4.8,-4.1 2.6,0 4,1.8 4.8,4.1 l 17,45.3 c 0.2,0.7 0.9,2.5 0.9,3.4 0,1.8 -1.5,2.9 -3.2,2.9 -1.8,0 -2.8,-1.1 -3.3,-2.5 l -3.5,-9.8 h -25.4 z m 16.3,-45.3 h -0.2 L 366,452.5 h 21.2 z"
   id="path58"
   inkscape:connector-curvature="0"
   style="fill:#020000" />
	<path
   class="st1"
   d="m 407.7,421.8 h -10.2 c -1.9,0 -3.3,-1 -3.3,-3.2 0,-2.1 1.4,-3.1 3.3,-3.1 h 27.2 c 1.9,0 3.3,1 3.3,3.1 0,2.2 -1.4,3.2 -3.3,3.2 h -10.2 v 45.3 c 0,2.2 -1.3,3.6 -3.4,3.6 -2.1,0 -3.4,-1.4 -3.4,-3.6 z"
   id="path60"
   inkscape:connector-curvature="0"
   style="fill:#020000" />
	<path
   class="st1"
   d="m 440.9,467.1 c 0,2.2 -1.3,3.6 -3.4,3.6 -2.1,0 -3.4,-1.4 -3.4,-3.6 v -48.4 c 0,-2.2 1.3,-3.6 3.4,-3.6 2.1,0 3.4,1.4 3.4,3.6 z"
   id="path62"
   inkscape:connector-curvature="0"
   style="fill:#020000" />
	<path
   class="st1"
   d="m 482.1,419.4 c 0.8,-2.4 1.5,-4.4 4.1,-4.4 1.9,0 3,1.4 3,2.8 0,0.9 -0.2,1.7 -0.5,2.6 L 472.1,467 c -0.8,2.2 -1.6,3.7 -3.9,3.7 -2.3,0 -3.2,-1.5 -3.9,-3.7 l -16.7,-46.6 c -0.3,-0.9 -0.5,-1.7 -0.5,-2.6 0,-1.4 1.2,-2.8 3,-2.8 2.7,0 3.3,2 4.1,4.4 l 13.8,39.9 h 0.2 z"
   id="path64"
   inkscape:connector-curvature="0"
   style="fill:#020000" />
	<path
   class="st1"
   d="m 502.4,463.9 h 16.3 c 1.9,0 3.3,1 3.3,3.1 0,2.1 -1.4,3.2 -3.3,3.2 h -19.4 c -2.5,0 -3.6,-1.6 -3.6,-3.7 v -47.4 c 0,-2.1 1.1,-3.7 3.6,-3.7 h 19.4 c 1.9,0 3.3,1 3.3,3.1 0,2.1 -1.4,3.2 -3.3,3.2 h -16.3 v 17.9 h 14.8 c 1.9,0 3.3,1 3.3,3.2 0,2.1 -1.4,3.1 -3.3,3.1 h -14.8 z"
   id="path66"
   inkscape:connector-curvature="0"
   style="fill:#020000" />
	<path
   class="st2"
   d="m 534,414.9 c 1.5,0 2.7,1.2 2.7,2.7 0,1.5 -1.2,2.7 -2.7,2.7 -1.5,0 -2.8,-1.2 -2.8,-2.7 0.1,-1.5 1.3,-2.7 2.8,-2.7 z m 0,0.5 c -1.2,0 -2.1,1 -2.1,2.1 0,1.2 0.9,2.1 2.1,2.1 1.2,0 2,-0.9 2,-2.1 0.1,-1.1 -0.8,-2.1 -2,-2.1 z m -0.4,3.6 H 533 v -2.7 c 0.2,0 0.6,-0.1 1,-0.1 0.5,0 0.7,0.1 0.9,0.2 0.2,0.1 0.3,0.3 0.3,0.6 0,0.3 -0.2,0.5 -0.5,0.6 v 0 c 0.3,0.1 0.4,0.3 0.5,0.6 0.1,0.4 0.1,0.6 0.2,0.7 h -0.7 c -0.1,-0.1 -0.1,-0.3 -0.2,-0.6 -0.1,-0.3 -0.2,-0.4 -0.6,-0.4 h -0.3 z m 0,-1.5 h 0.3 c 0.3,0 0.6,-0.1 0.6,-0.4 0,-0.2 -0.2,-0.4 -0.6,-0.4 -0.2,0 -0.3,0 -0.3,0 z"
   id="path68"
   inkscape:connector-curvature="0"
   style="fill:#21110d" />
</g>
</svg>