<?xml version="1.0" encoding="UTF-8" standalone="no"?>
<svg
   xmlns:dc="http://purl.org/dc/elements/1.1/"
   xmlns:cc="http://creativecommons.org/ns#"
   xmlns:rdf="http://www.w3.org/1999/02/22-rdf-syntax-ns#"
   xmlns:svg="http://www.w3.org/2000/svg"
   xmlns="http://www.w3.org/2000/svg"
   xmlns:sodipodi="http://sodipodi.sourceforge.net/DTD/sodipodi-0.dtd"
   xmlns:inkscape="http://www.inkscape.org/namespaces/inkscape"
   class="main-svg"
   width="360"
   height="360"
   viewBox="0 0 1000 1000"
   version="1.1"
   id="svg1141"
   sodipodi:docname="export_to_eu_2017.svg"
   inkscape:version="0.92.3 (2405546, 2018-03-11)">
  <metadata
     id="metadata1145">
    <rdf:RDF>
      <cc:Work
         rdf:about="">
        <dc:format>image/svg+xml</dc:format>
        <dc:type
           rdf:resource="http://purl.org/dc/dcmitype/StillImage" />
      </cc:Work>
    </rdf:RDF>
  </metadata>
  <sodipodi:namedview
     pagecolor="#ffffff"
     bordercolor="#666666"
     borderopacity="1"
     objecttolerance="10"
     gridtolerance="10"
     guidetolerance="10"
     inkscape:pageopacity="0"
     inkscape:pageshadow="2"
     inkscape:window-width="1366"
     inkscape:window-height="705"
     id="namedview1143"
     showgrid="false"
     inkscape:zoom="1.5361111"
     inkscape:cx="184.94999"
     inkscape:cy="234.31343"
     inkscape:window-x="-8"
     inkscape:window-y="-8"
     inkscape:window-maximized="1"
     inkscape:current-layer="g1139" />
  <rect
     x="0"
     y="0"
     width="1000"
     height="1000"
     style="fill: rgb(255, 255, 255); fill-opacity: 1;"
     id="rect981" />
  <defs
     id="defs-960b2a">
    <g
       class="clips"
       id="g986">
      <clipPath
         id="clip960b2ageo">
        <rect
           x="80"
           y="149.73276350044443"
           width="757"
           height="720.5344729991111"
           id="rect983" />
      </clipPath>
    </g>
    <g
       class="gradients"
       id="g999">
      <linearGradient
         x1="0"
         x2="0"
         y1="1"
         y2="0"
         id="g960b2a-cb95a0edc2-de0b-11e8-9a52-4ceb42e627f0">
        <stop
           offset="0%"
           stop-color="rgb(191, 191, 191)"
           stop-opacity="1"
           id="stop988" />
        <stop
           offset="1%"
           stop-color="rgb(186, 228, 188)"
           stop-opacity="1"
           id="stop990" />
        <stop
           offset="10%"
           stop-color="rgb(123, 204, 196)"
           stop-opacity="1"
           id="stop992" />
        <stop
           offset="25%"
           stop-color="rgb(67, 162, 202)"
           stop-opacity="1"
           id="stop994" />
        <stop
           offset="100%"
           stop-color="rgb(8, 104, 172)"
           stop-opacity="1"
           id="stop996" />
      </linearGradient>
    </g>
  </defs>
  <g
     class="layer bg"
     id="g1018"
     transform="matrix(1.8594694,0,0,1.8594694,-482.69891,-459.15921)" />
  <g
     class="layer backplot"
     id="g1052"
     transform="matrix(1.8594694,0,0,1.8594694,-482.69891,-459.15921)"
     style="display:inline">
    <g
       class="choroplethlayer"
       id="g1050"
       style="display:inline">
      <g
         class="trace choropleth"
         id="g1048"
         style="stroke:none">
        <path
           style="opacity:1;fill:#6ec2c5;stroke:none;stroke-width:2px;stroke-opacity:1"
           d="m 380.83269,573.0505 c 8.88984,-2.49583 23.95388,6.43545 15.21268,14.90147 -2.02145,11.56295 -16.43488,-6.88808 -20.51088,-11.64918 -1.86655,-3.29171 3.89896,-2.02209 5.2982,-3.25229 z"
           id="path1028"
           inkscape:connector-curvature="0" />
        <path
           style="opacity:1;fill:#81cec3;stroke:none;stroke-width:2px;stroke-opacity:1"
           d="m 442.22352,525.30368 c 9.57741,20.73562 -20.04855,8.29255 -3.3243,1.22926 l 1.96045,-0.72493 z m -17.14218,6.44057 c 1.24629,16.72462 -16.00211,-2.74787 -8.96077,-12.38967 5.20118,-9.22058 21.57748,-17.4638 13.98937,0.0394 8.85784,3.90849 -4.92887,5.92342 -5.0286,12.35029 z"
           id="path1030"
           inkscape:connector-curvature="0" />
        <path
           style="opacity:1;fill:#bfbfbf;stroke:none;stroke-width:2px;stroke-opacity:1"
           d="m 514.39354,504.28903 c 0.11021,-7.00774 -15.57409,-16.98022 4.07271,-20.43023 16.91993,-3.69084 15.27801,2.32319 15.63077,16.16221 0.85487,16.5465 -13.73509,-3.59831 -19.70348,4.26802 z"
           id="path1032"
           inkscape:connector-curvature="0" />
        <path
           style="opacity:1;fill:#bfbfbf;stroke:none;stroke-width:2px;stroke-opacity:1"
           d="m 411.70087,666.51788 c 14.9265,-8.62836 -3.22577,27.51602 -0.85991,1.77623 z m -16.88919,-72.76239 c 13.3233,4.38949 18.78994,9.06299 9.24373,22.17678 -10.30239,2.24104 -9.30776,11.62096 -4.51404,18.17809 -3.24139,10.16979 10.31102,20.01631 -4.05605,26.16128 -11.75679,-6.38128 -25.03969,-3.27386 -31.12651,4.34865 -10.43061,-4.00749 -22.64206,-3.71265 -30.3389,-13.8839 6.67327,-10.01696 12.07371,-26.25008 3.43583,-37.55261 -5.32369,-7.27876 -25.47674,-19.76172 -5.38699,-20.58628 18.45485,11.34479 5.2443,-12.85303 21.17758,-3.56195 14.08037,1.46628 15.8484,-22.26418 25.67832,-10.12387 2.92138,9.62851 10.22805,8.75828 15.88703,14.84381 z"
           id="path1034"
           inkscape:connector-curvature="0" />
        <path
           style="opacity:1;fill:#bfc0bf;stroke:none;stroke-width:2px;stroke-opacity:1"
           d="m 426.51705,537.16509 c 2.14847,14.65133 12.43754,5.29543 21.55399,9.51657 8.97771,7.03857 5.04956,18.28409 8.60213,28.25484 6.07323,8.829 -18.15411,6.59466 -15.74818,16.68961 7.58692,9.93291 5.5414,15.0296 3.0475,26.29522 -10.1983,-5.83585 -18.08778,4.17572 -27.19679,-3.20744 -20.01294,6.12116 1.32706,-16.19677 -13.8241,-16.47649 -9.88339,-5.31983 -1.22611,-19.27452 -3.95583,-28.86175 12.29443,2.56741 2.79084,-28.06804 15.19846,-16.96274 11.041,-7.78988 -5.80392,-15.81813 12.32282,-15.24782 z"
           id="path1036"
           inkscape:connector-curvature="0" />
        <path
           style="opacity:1;fill:#bfbfbf;stroke:none;stroke-width:2px;stroke-opacity:1"
           d="m 550.57638,736.93347 c -2.30832,11.66437 -31.33522,-2.02213 -17.89288,0.15847 6.65749,-0.89768 13.34548,1.20127 17.89288,-0.15847 z m -7.53752,-55.09699 c -20.2537,-3.79691 -9.18448,9.03819 -19.92841,10.55053 -14.53262,-15.2282 5.87129,21.20391 2.35036,14.4376 12.08729,10.53395 -8.107,4.8916 -3.31674,16.40111 2.76549,13.76335 -17.94574,-3.3185 -15.40102,-13.02452 -10.76102,-7.34252 -7.45505,-20.21005 -0.15496,-25.97864 8.84948,-2.65396 18.38986,-9.59252 27.51617,-6.89255 6.60383,4.79005 17.83462,-16.23288 8.9346,4.50647 z"
           id="path1038"
           inkscape:connector-curvature="0" />
        <path
           style="opacity:1;fill:#b8e3bc;stroke:none;stroke-width:2px;stroke-opacity:1"
           d="m 456.614,713.18391 c 9.54554,-3.1032 4.34398,24.46585 -7.44826,10.45655 -22.41759,-9.75643 -6.02399,-10.22564 7.44826,-10.45655 z m -46.19499,-29.16787 c 10.65712,-7.14499 10.89276,21.5106 -0.10135,19.7614 -3.82115,-0.42221 -5.80079,-24.57425 0.10135,-19.7614 z m 39.58381,-56.00839 c 5.53025,14.35005 -16.34839,4.73788 -10.67567,21.36863 8.80918,6.89931 11.32951,21.33025 22.31644,25.30707 5.52219,3.1799 12.91393,9.9295 22.88362,15.78033 4.38915,6.40609 -25.74143,-4.85013 -9.09775,9.68498 -0.87559,8.83517 -17.9875,22.81612 -8.22433,4.75057 -4.31729,-10.64921 -12.11348,-17.50008 -21.24405,-22.74633 -11.31334,-3.95518 -22.26799,-15.6084 -22.83601,-28.29891 -10.80473,-11.50733 -19.01646,7.84839 -23.18904,-4.77904 -2.79599,-13.90721 0.4735,-19.18874 11.88127,-17.20602 8.49651,-3.44738 13.75391,-6.3066 21.52949,-9.24812 6.65791,-3.11954 8.10195,6.07236 16.65603,5.38684 z"
           id="path1040"
           inkscape:connector-curvature="0" />
        <path
           style="opacity:1;fill:#bfc0bf;stroke:none;stroke-width:2px;stroke-opacity:1"
           d="m 401.0488,551.65254 c 16.06637,4.02242 -4.60635,19.06401 -1.89334,26.08233 2.36267,-0.038 -22.41182,-4.77166 -14.57105,-7.18641 4.36099,-8.26981 5.44789,-17.56118 16.46439,-18.89592 z"
           id="path1042"
           inkscape:connector-curvature="0" />
        <path
           style="opacity:1;fill:#bfbfbf;stroke:none;stroke-width:2px;stroke-opacity:1"
           d="m 495.46859,411.55633 c -5.18503,11.25763 -3.61029,23.10437 -15.54493,31.2785 -10.13739,8.77546 -12.79248,26.88887 -1.06755,35.71492 4.23607,12.63294 -14.63997,16.4275 -10.85921,30.00353 2.50155,17.08555 -11.53442,13.28461 -15.098,24.68376 -12.88619,2.76042 -8.50309,-18.72121 -14.81263,-26.94597 -8.24921,-13.0192 5.65556,-22.11222 6.17714,-34.58369 -0.49518,-11.10276 -6.08166,-23.67388 0.20974,-35.27289 10.82716,-3.46869 5.24801,-16.97108 13.51707,-27.22363 4.93088,-9.38759 5.65323,-24.58452 14.13947,-27.86043 4.92568,-4.32541 10.02547,-8.80576 14.70645,-11.50739 11.3976,7.40178 16.07904,18.39559 14.9542,31.78828 4.92891,7.1271 -1.07418,6.95551 -6.32175,9.92501 z"
           id="path1044"
           inkscape:connector-curvature="0" />
        <path
           style="opacity:1;fill:#0868ac;stroke:none;stroke-width:2px;stroke-opacity:1"
           d="m 323.479,536.9111 c -15.41312,-2.68305 -1.62429,-26.16472 4.80422,-6.66175 -1.60141,2.22058 -3.20281,4.44117 -4.80422,6.66175 z m 29.45701,-17.51929 c 1.25062,12.79181 10.61374,19.1078 10.69186,32.17403 11.81952,5.33907 5.16958,17.24804 -0.31717,24.34074 -10.98675,1.39749 -23.6237,-1.83932 -32.15058,1.75914 -18.46803,3.87388 -7.80329,-9.44696 5.32025,-11.51093 -18.64148,-3.67311 -2.38005,-8.10167 -5.99738,-16.60372 2.4974,-8.83822 22.71899,-3.99523 8.69329,-18.5098 -9.58523,-6.23211 -2.19214,-13.1632 -8.22812,-12.98017 -0.60971,-11.47013 0.0806,-23.01107 9.68041,-31.72767 22.89474,-1.79511 -6.20188,15.3085 11.74178,12.90858 15.72123,0.82575 -16.70716,21.54925 0.56566,20.1498 z"
           id="path1046"
           inkscape:connector-curvature="0" />
      </g>
    </g>
  </g>
  <g
     class="layer countries"
     id="g1022"
     transform="matrix(1.8594694,0,0,1.8594694,-482.69891,-459.15921)">
    <path
       id="path1020"
       style="fill:none;stroke:#444444;stroke-width:1px;stroke-miterlimit:2;stroke-opacity:1"
       d="m 568.56779,560.73721 2.51963,-0.005 1.25514,-2.64505 2.06157,0.15378 6.54028,-2.08581 5.18867,5.15403 -1.25456,2.47147 1.10262,3.11888 5.35934,-0.39191 3.15673,4.0818 0.27183,2.08692 9.12107,2.00704 4.72219,-2.71829 5.14089,3.97058 3.86571,-0.93764 10.56326,1.10326 0.77383,3.02991 -1.47318,5.97027 2.75613,5.26003 -0.25412,3.62791 -6.44575,2.32636 -2.89154,3.61003 0.78549,4.52142 -5.36627,2.00185 -3.94917,4.24352 -6.41954,1.84224 -5.34159,4.89981 1.61547,6.22171 3.91093,1.81134 7.08862,-2.04699 -0.61731,3.90154 -7.49934,3.2402 -8.70609,7.58975 -4.30495,-1.31757 0.7414,-5.00296 -8.2921,-1.71377 0.90774,-2.11963 6.27289,-4.53508 -2.50843,-2.0222 -11.34847,-0.7968 -1.09109,-3.69724 -6.32692,2.26918 -1.80059,5.99586 -4.48004,8.30277 -3.4583,-1.31677 -3.20904,2.0943 -3.40455,-1.53823 1.66875,-1.32723 0.78216,-3.65364 1.57145,-3.48121 -0.74711,-1.78141 1.35619,-1.02042 0.88082,1.29419 4.18905,-0.18415 1.79475,-1.09306 -1.4748,-0.83094 0.29177,-1.63982 -2.82099,-2.25291 -1.57904,-4.12721 -2.73185,-1.34053 0.0409,-3.59815 -3.53861,-2.38641 -2.84769,-0.0248 -5.48466,-2.66382 -4.4792,1.54595 -1.50812,1.77201 -2.86657,0.30152 -1.50006,2.60932 -5.04245,1.43502 -2.23714,1.80884 -3.48548,-2.23467 -4.44771,0.37192 -4.4157,-0.88149 -2.84508,2.46761 -0.69329,-2.68192 -4.00709,-2.6517 1.02589,-4.31908 1.73816,-2.76943 1.52266,0.46108 -2.05716,-4.59822 5.52551,-9.16978 3.2344,-1.50123 0.48125,-3.00821 -4.10422,-8.99219 3.1157,-0.73364 3.3748,-3.1859 5.07323,-0.65807 6.7039,0.10504 7.63034,1.77601 5.24157,-0.42798 2.622,1.22358 2.25985,-2.12812 2.04293,2.25181 5.87007,-1.28199 2.80419,0.57108 -0.35429,-5.38663 1.66488,-2.5801 z m -73.0992,-149.18088 -4.49552,9.03412 1.23949,7.48242 -7.99957,10.18796 -10.09695,10.76705 -3.67171,16.73965 4.21956,8.11904 5.67117,6.30828 -4.95458,13.0884 -6.04935,2.80009 -2.03636,19.03215 -3.368,10.46295 -7.5106,-1.07968 -3.51727,8.73828 -7.27047,0.39713 -1.74356,-10.49076 -4.78356,-12.79707 -4.03954,-16.13864 2.81424,-6.49916 5.0808,-7.74314 2.16742,-13.69864 -3.43905,-6.02527 0.0968,-15.89122 3.82484,-11.25036 5.27885,0.31284 1.92137,-4.82332 -1.89731,-4.23015 8.16337,-17.4652 4.94467,-14.13082 3.11169,-9.24749 4.69816,-0.0971 1.07222,-7.34126 9.18522,1.79933 0.29433,-8.70422 2.91663,-0.7426 6.73233,6.17718 8.15828,8.28103 1.68409,19.68262 2.13676,4.84226 z m -45.46577,216.45132 5.89738,0.78749 3.5918,-2.32623 6.20529,-0.31261 1.3249,-1.69302 1.21402,0.079 1.39013,3.43212 -5.62344,2.85382 -0.6822,4.18785 -2.52058,1.0328 0.0735,2.87552 -2.8612,-0.18199 -2.3994,-1.67461 -1.37194,1.75594 -5.00216,-0.41389 1.5688,-0.91056 -1.63555,-4.38229 z m 34.86677,-31.60948 0.39291,0.64965 2.77543,-1.52762 3.60415,3.54521 3.89927,-2.45811 3.32224,0.96526 4.83596,-1.79585 6.73399,3.63923 -1.73816,2.76943 -1.02589,4.31908 -1.42522,1.22335 -7.60434,-2.76438 -2.20698,0.77504 -1.50165,2.52527 -3.25492,1.46806 -0.77956,-0.6252 -3.31755,1.73436 -2.74955,0.38254 -0.49454,2.08437 -5.81702,1.48936 -2.61027,-1.06215 -3.6376,-2.64978 -0.75164,-3.56254 0.53818,-1.32869 0.95164,-2.37598 3.04851,0.12375 2.33361,-1.09685 0.15835,-1.04354 1.28768,-0.5082 0.42645,-2.37752 1.52822,-0.51959 0.98674,-1.92677 z m 21.46513,48.12133 4.38459,2.685 2.14808,-2.36558 1.91934,1.06977 -1.58557,1.86892 1.44478,1.74872 -1.62285,2.42211 0.91461,3.62806 3.90884,4.14429 -2.64647,3.41035 -0.98753,3.28457 0.89645,1.22365 -1.18776,1.45816 -3.43261,0.40914 -2.5288,0.79879 -0.31995,-0.80592 0.87294,-1.24543 0.65563,-2.51881 -1.07041,0.1578 -1.52636,-1.83707 -1.23443,-0.38719 -1.09932,-1.59152 -1.44102,-0.56341 -1.14878,-1.40931 -1.23561,0.70884 -0.89813,3.44615 -1.70989,0.8191 0.55973,-0.94548 -2.98218,-1.97172 -2.45725,-0.99458 -1.12671,-1.33186 -2.07049,-1.6649 1.71328,-0.52836 0.92552,-4.92116 -3.71999,-3.72668 1.66243,-4.59428 -2.61947,0.10087 2.59382,-3.98941 -2.38822,-2.78214 -1.89359,-3.92498 5.37313,-2.99898 4.46245,0.26432 4.14311,3.88428 0.95146,3.20025 4.56041,2.15336 z m 240.61167,-134.50993 -0.14012,0.27192 0.29498,0.0811 4.74245,10.81149 -0.42546,0.0821 -0.56937,3.6875 -10.02931,-1.63595 -9.72061,4.21477 -4.95775,6.81031 -8.92988,-1.16249 -16.32687,-1.85857 -9.69861,3.68994 -9.43254,15.32586 1.53357,7.60712 -8.48239,-3.82465 -1.80869,12.76641 2.55264,1.40427 -1.59151,8.75298 7.77385,5.11358 4.8582,-1.79874 6.37955,5.24707 0.94886,5.28127 3.93343,0.49788 -1.18986,6.82978 -6.17495,3.69305 -3.8339,12.2952 9.20753,7.31577 1.32647,6.80151 11.45664,8.9813 -3.12563,5.29585 -0.48332,2.8262 -3.42853,0.29474 -6.74514,-4.3475 -2.12695,0.2528 -5.20923,-0.85251 -3.38031,-3.40573 -7.32268,-0.11908 -3.94178,2.70053 -1.80499,-1.50433 -11.04055,-2.11717 -11.03769,1.05372 -6.44023,-0.25881 -0.63686,1.37641 -11.10902,-6.35121 -8.91028,-1.95064 -7.38623,-4.71144 4.78816,-2.59068 4.09015,-9.69972 -4.74965,-3.17449 9.25078,-6.41539 -0.67939,-2.14698 -5.78035,3.00085 -0.78549,-4.52142 2.89154,-3.61003 6.44575,-2.32636 0.25412,-3.62791 -2.75613,-5.26003 1.47318,-5.97027 -0.77383,-3.02991 -10.56326,-1.10326 -3.86571,0.93764 -5.14089,-3.97058 -4.72219,2.71829 -9.12107,-2.00704 -0.27183,-2.08692 -3.15673,-4.0818 -5.35934,0.39191 -1.10262,-3.11888 1.25456,-2.47147 -5.18867,-5.15403 -6.54028,2.08581 -2.06157,-0.15378 -1.25514,2.64505 -2.51963,0.005 -2.63541,-6.63921 -2.04467,-3.32244 1.06564,-1.14533 5.24678,-0.42731 2.09861,-2.70677 -2.30254,-2.58979 -4.58922,-1.25295 0.0988,-1.99578 -2.85536,-1.54444 -5.01164,-6.51321 0.91642,-3.12873 -1.36439,-5.00667 -6.41304,-1.69805 -3.04556,1.71644 -1.25224,-2.64517 -6.80491,-1.85367 -2.71106,-6.33158 -1.18294,-5.33482 -3.15957,-2.17766 2.11475,-3.91602 -2.96906,-10.2326 3.38414,-7.02671 -1.08267,-1.95026 5.74697,-7.09569 -6.64635,-4.74001 10.02385,-16.41715 4.16664,-7.509 1.08953,-6.36524 -9.12248,-6.9992 1.04821,-8.11055 -5.96665,-8.44626 2.01833,-11.02416 -7.77503,-13.54957 3.23629,-10.13356 -8.52895,-7.63745 -0.42061,-9.29189 3.61725,-1.67568 7.18768,-6.48504 4.0576,-5.41213 8.92224,6.85727 13.35748,0.67305 20.94188,10.69325 5.14506,5.11928 2.30533,8.10993 -3.87316,7.85647 -7.42378,5.05126 -24.0602,-5.01854 -3.34551,2.20299 9.75692,7.63278 1.38088,5.69908 2.63155,12.41269 7.40058,2.28409 4.73079,2.29235 -0.53662,-5.94641 -4.11053,-4.46962 2.30022,-5.23894 14.05207,4.77979 3.61514,-3.91717 -5.47354,-8.11722 8.67967,-14.80354 4.70061,-0.39124 5.74706,3.05018 0.5287,-9.24999 -6.04129,-6.2332 0.2878,-8.0484 -5.54004,-6.92259 14.0961,0.33133 4.80541,6.27258 -5.56763,3.21859 2.03124,6.88372 4.99574,3.08635 6.64295,-4.89636 -1.29701,-8.19288 7.83805,-9.05109 12.15854,-16.20642 3.59277,-0.7124 -1.64763,9.21288 6.10905,-0.91224 1.64452,-5.43537 8.25788,-3.68172 4.47126,-7.78857 8.15769,5.13113 0.0902,-0.55458 M 507.62692,543.35755 495.977,544.284 l -7.8939,-0.89596 1.26853,-4.88625 8.47169,-3.99684 6.67279,1.56471 2.88883,1.48232 -0.40849,3.09168 z m 4.74295,68.48052 2.84508,-2.46761 4.4157,0.88149 4.44771,-0.37192 3.48548,2.23467 2.23714,-1.80884 5.04245,-1.43502 1.50006,-2.60932 2.86657,-0.30152 2.23105,0.79811 2.5197,2.74305 2.69733,4.12542 4.76893,5.64708 0.80462,4.50362 -0.23119,4.52533 1.84578,4.45099 3.40455,1.53823 3.20904,-2.0943 3.4583,1.31677 0.55351,2.63445 -3.22465,2.57453 -2.32807,-0.63139 -0.47849,12.5192 -4.48843,-0.56305 -5.69163,-3.04749 -8.36835,3.30892 -3.37934,2.92715 -10.84562,0.42849 -5.81866,-1.10296 -2.79145,0.94764 -2.41105,-3.98346 -1.44478,-1.74872 1.58557,-1.86892 -1.91934,-1.06977 -2.14808,2.36558 -4.38459,-2.685 -0.84279,-4.21227 -4.56041,-2.15336 -0.95146,-3.20025 -4.14311,-3.88428 5.68503,-2.25039 3.8747,-7.23102 2.84931,-7.21237 z m -234.12552,43.6378 3.27563,-1.89357 3.29257,-0.77775 0.81737,5.22822 4.3321,0.91743 1.52699,-0.98907 4.25933,1.24435 1.08778,5.34083 -3.98686,2.08197 -1.6974,7.64732 -1.51545,1.17558 -1.24182,4.66203 -3.45126,0.11828 1.78693,6.58033 -3.41884,6.0462 2.04113,3.47218 -1.59525,2.44232 -3.64845,3.11864 -0.0339,3.31604 -3.71755,1.89146 -3.80791,-2.20658 -4.32193,0.15597 2.89983,-7.40721 0.63756,-6.15976 -3.24681,-1.75027 -0.94984,-4.11831 2.00529,-6.23871 3.8937,-2.93471 1.43846,-3.86861 2.88066,-5.60494 0.7268,-4.22654 -0.6957,-3.80136 z m 180.34586,-75.66353 -2.68187,-6.82107 0.54665,-3.65949 -1.62974,-5.80659 -2.31974,-3.79886 1.83019,-2.90399 -1.47023,-5.47263 4.39777,-3.20784 9.88865,-5.06002 7.90375,-3.88891 6.36453,1.69128 0.54555,2.64025 6.11738,-0.13643 7.8939,0.89596 11.64992,-0.92645 3.34483,0.93547 1.80381,3.20299 0.66198,4.74985 2.13193,4.02992 0.28661,4.26157 -3.7561,2.5278 2.44101,4.75301 0.49499,4.78923 4.10422,8.99219 -0.48125,3.00821 -3.2344,1.50123 -5.52551,9.16978 2.05716,4.59822 -1.52266,-0.46108 -6.73399,-3.63923 -4.83596,1.79585 -3.32224,-0.96526 -3.89927,2.45811 -3.60415,-3.54521 -2.77543,1.52762 -0.39291,-0.64965 -3.36142,-5.11144 -5.02384,-0.43134 -0.74971,-3.31506 -4.64094,-1.14542 -0.92724,2.77913 -3.73967,-2.14171 0.39154,-2.96286 -5.02505,-0.82005 z m 75.15313,-222.27831 -7.18768,6.48504 -3.61725,1.67568 0.78655,-9.57942 -6.58584,-4.59212 -6.64058,5.27387 -1.32425,10.07791 -3.98891,6.2439 -5.38083,-2.76896 -6.16386,1.17172 -5.72891,-6.72344 -2.6158,3.63168 -2.91663,0.7426 -0.29433,8.70422 -9.18522,-1.79933 -1.07222,7.34126 -4.69816,0.0971 -3.11169,9.24749 -4.94467,14.13082 -8.16337,17.4652 1.89731,4.23015 -1.92137,4.82332 -5.27885,-0.31284 -3.82484,11.25036 -0.0968,15.89122 3.43905,6.02527 -2.16742,13.69864 -5.0808,7.74314 -2.81424,6.49916 -3.62776,-7.15483 -12.33792,12.52619 -8.10951,2.11269 -7.77329,-6.35346 -0.9743,-12.4911 0.64478,-26.9543 5.72522,-7.12925 15.06222,-9.11845 11.19985,-11.95461 10.07861,-16.99605 12.38087,-24.53428 8.07926,-9.81195 12.56361,-17.13029 9.87645,-6.34727 7.62269,0.23225 5.99614,-11.8967 8.24953,-0.29385 7.69855,-3.63774 15.44341,8.1752 -5.34472,4.37361 z m -132.69454,194.11851 5.29875,0.70859 0.94681,3.78057 -2.36199,9.6402 -1.96401,3.91239 -3.9726,-0.31864 0.21551,11.28051 -3.45783,-2.78626 -3.76566,-5.05397 -6.35422,1.60356 -4.80087,-1.36899 3.75172,-2.50204 7.24937,-15.11674 z m 90.48082,123.14224 -1.59191,-0.66943 -2.22371,-3.21303 -3.31537,-1.99523 0.75619,-1.67429 0.88443,-5.72028 2.32325,-2.38074 1.36509,-0.97164 2.07049,1.6649 1.12671,1.33186 2.45725,0.99458 2.98218,1.97172 -0.55973,0.94548 -1.30864,2.26447 -1.9811,1.00694 -0.55598,-1.90161 -3.03172,5.16708 z m 9.25921,-0.14957 0.95654,0.0418 0.22863,-2.11768 4.31644,-1.79795 1.66938,-0.46589 2.5288,-0.79879 3.43261,-0.40914 4.01897,3.01951 1.02883,6.61038 -1.40883,0.46777 -1.10963,1.8157 -4.19161,0.0998 -2.73843,2.45635 -4.97223,1.1116 -3.29231,-2.28834 -1.31295,-4.22662 z m 38.42123,-68.68521 1.50812,-1.77201 4.4792,-1.54595 5.48466,2.66382 2.84769,0.0248 3.53861,2.38641 -0.0409,3.59815 2.73185,1.34053 1.57904,4.12721 2.82099,2.25291 -0.29177,1.63982 1.4748,0.83094 -1.79475,1.09306 -4.18905,0.18415 -0.88082,-1.29419 -1.35619,1.02042 0.74711,1.78141 -1.57145,3.48121 -0.78216,3.65364 -1.66875,1.32723 -1.84578,-4.45099 0.23119,-4.52533 -0.80462,-4.50362 -4.76893,-5.64708 -2.69733,-4.12542 -2.5197,-2.74305 z m -43.25379,-80.60318 -0.24751,-8.40734 2.60123,-7.11704 5.38585,-4.20585 5.44605,8.01356 4.83901,-0.69158 0.41264,-8.65954 4.93849,-2.38099 2.70557,1.06827 5.5985,3.60807 4.9854,-0.44431 3.15957,2.17766 1.18294,5.33482 2.71106,6.33158 -6.10761,4.9272 -3.52735,2.2841 -6.492,-4.74527 -3.33346,-0.38652 -1.09389,-2.20859 -5.92788,1.6157 -10.34157,0.0635 z m -98.11579,62.36351 1.20749,2.48342 -0.80311,4.59932 -1.97983,0.0268 -1.45335,-1.07438 1.23369,-5.80352 z m 109.78644,-44.36278 -0.65047,-2.71389 0.40849,-3.09168 -2.88883,-1.48232 -6.67279,-1.56471 -1.86705,-9.14813 6.89504,-3.82253 10.34157,-0.0635 5.92788,-1.6157 1.09389,2.20859 3.33346,0.38652 6.492,4.74527 1.0846,4.86971 -4.76439,4.06651 -0.88034,6.21751 -6.54884,4.73697 -6.15558,0.40988 -1.80381,-3.20299 z m -6.83809,131.28766 -0.72934,-3.6254 -1.8132,-1.00949 -1.75044,-2.66717 1.30864,-2.26447 1.70989,-0.8191 0.89813,-3.44615 1.23561,-0.70884 1.14878,1.40931 1.44102,0.56341 1.09932,1.59152 1.23443,0.38719 1.52636,1.83707 1.07041,-0.1578 -0.65563,2.51881 -0.87294,1.24543 0.31995,0.80592 -1.66938,0.46589 -4.31644,1.79795 -0.22863,2.11768 z m -50.78601,-46.63756 -0.83068,5.10933 1.63555,4.38229 -5.68665,-1.56125 -5.9187,3.4949 0.26816,5.09934 -0.99134,2.93358 2.31807,5.22238 6.81233,5.27757 3.65485,8.48912 8.28943,8.27094 5.91428,-0.12027 1.8599,2.26704 -2.09685,2.02906 6.89311,3.56549 5.6303,2.98855 6.77263,5.00796 0.82322,1.88506 -1.34858,3.67919 -4.37413,-4.60744 -6.75762,-1.49491 -3.16783,6.59508 5.72719,3.628 -0.81182,5.27731 -3.30678,0.59996 -4.0762,8.74448 -3.27532,0.75065 -0.0195,-3.07631 1.59154,-5.35477 1.67375,-2.19075 -3.13954,-5.77983 -2.39939,-5.07473 -3.20098,-1.26687 -2.2117,-4.37031 -4.96092,-1.84941 -3.2587,-4.13628 -5.61469,-0.72837 -5.84347,-4.69956 -6.71953,-6.88572 -4.82835,-6.05348 -1.90279,-10.20068 -3.59039,-1.27318 -5.7619,-3.71794 -3.50736,1.1813 -4.52846,4.42155 -3.1076,0.61969 1.17128,-4.44205 -3.86461,-1.56841 -1.30863,-8.06372 2.70644,-2.95554 -1.79249,-3.94533 0.48109,-2.9443 2.93297,2.4498 3.51931,-0.22304 4.22084,-3.26873 1.12174,1.74484 3.43669,-0.17416 1.77019,-4.09723 5.19573,1.56565 3.21863,-1.53418 0.75649,-4.26201 4.21703,1.65941 0.89957,-1.92917 7.05925,-1.65255 1.50188,3.68104 z m -39.58381,56.00839 3.94702,-2.88504 4.25284,7.33013 -1.75999,13.28604 -3.47713,-0.81347 -3.41778,3.172 -2.79858,-2.7984 0.45803,-12.16687 -1.36371,-5.92315 z m 46.19499,29.16787 5.97438,-0.82218 -2.8327,7.87722 1.22856,3.06928 -1.65118,5.23985 -6.13434,-3.80737 -4.09937,-1.11836 -11.04244,-5.34119 1.26035,-5.12793 9.24223,1.06126 z M 323.479,536.9111 l -0.42278,7.8699 -6.71295,8.44669 -12.76159,3.80433 -8.76132,-3.66329 7.68877,-9.73838 -0.83753,-11.48469 10.31441,-6.44035 5.73616,-4.02129 0.0854,5.96596 -2.49687,5.49803 3.86881,0.60229 z m 143.54319,87.55218 2.26692,-6.76114 -1.41969,-2.23074 3.97457,-0.0592 0.4263,-4.32696 3.6376,2.64978 2.61027,1.06215 5.81702,-1.48936 0.49454,-2.08437 2.74955,-0.38254 3.31755,-1.73436 0.77956,0.6252 3.25492,-1.46806 1.50165,-2.52527 2.20698,-0.77504 7.60434,2.76438 1.42522,-1.22335 4.00709,2.6517 0.69329,2.68192 -4.12388,2.53749 -2.84931,7.21237 -3.8747,7.23102 -5.68503,2.25039 -4.46245,-0.26432 -5.37313,2.99898 -2.66652,1.57597 -5.93886,-1.78522 -5.43863,-4.35302 -2.33102,-1.26734 -1.39013,-3.43212 z m 18.97918,9.34072 1.89359,3.92498 2.38822,2.78214 -2.59382,3.98941 -3.4157,-2.19528 -5.02445,0.33311 -6.23823,-1.52746 -3.38846,0.24029 -1.53976,2.1492 -2.63675,-2.28659 -1.47067,4.26773 3.59541,4.76923 1.62503,3.1147 3.44524,3.81386 2.90771,2.15107 2.90817,4.2512 6.69792,3.66121 -0.75619,1.67429 -7.17592,-3.56256 -4.36711,-3.58261 -6.85436,-2.93982 -6.21303,-7.42405 1.45051,-0.83369 -3.29668,-4.24234 -0.12823,-3.51413 -4.69455,-1.59186 -2.25934,4.33004 -2.12174,-3.44612 0.23852,-3.5178 0.26219,-0.18232 5.00216,0.41389 1.37194,-1.75594 2.3994,1.67461 2.8612,0.18199 -0.0735,-2.87552 2.52058,-1.0328 0.6822,-4.18785 5.62344,-2.85382 2.33102,1.26734 5.43863,4.35302 5.93886,1.78522 z m 57.03749,48.03248 -4.69079,0.19015 -4.06228,-0.53403 -8.97876,3.42211 5.78576,5.17812 -3.81506,1.96356 -4.3051,0.34155 -4.40082,-4.87091 -1.29722,2.28123 2.16968,5.94985 4.19601,4.41958 -2.78515,2.39162 4.72603,4.36649 4.12509,2.57333 0.6145,5.66745 -7.552,-2.12507 2.7458,4.95952 -5.01161,1.36993 3.67211,8.60283 -5.27348,0.56048 -6.8591,-3.8943 -3.49405,-7.84645 -1.80537,-6.60232 -3.29297,-4.44661 -4.30011,-5.59424 -0.6238,-2.7873 3.3098,-5.07608 0.31547,-3.29518 2.40972,-1.58767 -0.0129,-2.73553 4.97223,-1.1116 2.73843,-2.45635 4.19161,-0.0998 1.10963,-1.8157 1.40883,-0.46777 5.62997,-0.0652 5.83184,-3.32745 5.63841,3.06258 6.79269,-1.67483 -0.37583,-5.00989 3.93905,2.25082 -1.71668,6.60187 z m 7.53752,55.09699 -0.71956,3.06304 -11.67721,1.93822 -0.0712,-1.62132 -10.07044,-1.1425 1.12817,-4.3381 4.74021,3.04454 6.23624,-1.18663 6.13764,0.1362 -0.0419,1.81481 z m -197.64037,-217.54166 0.31043,1.25869 3.56051,13.66479 4.03665,2.37898 2.21971,12.85907 1.23061,4.38674 7.57565,3.12636 -1.66137,6.71339 -3.6868,2.64225 1.90619,5.85996 -6.68374,4.73441 -8.84556,-1.3328 -11.80697,1.07932 -2.72427,-2.47885 -5.25842,4.13802 -5.95704,-2.31256 -5.40362,3.06605 -3.14666,-2.73026 11.72534,-9.08573 6.30309,-1.2341 -0.0428,-0.10471 -9.93766,-3.52783 -1.03567,-4.5025 7.36656,-2.08335 -2.49718,-6.35608 2.46372,-6.66983 9.26968,2.61011 2.01625,-6.10133 -3.12141,-7.3011 -0.0227,-0.20374 -7.23739,-3.19401 -0.96603,-3.19147 3.17448,-4.44932 -1.48073,-3.40628 -4.28793,4.54538 1.67485,-10.52059 -1.94837,-6.19766 4.36483,-10.98155 6.24633,-8.15625 4.50615,1.75725 7.20134,0.30823 -8.38261,10.95636 6.35368,-0.44795 6.47308,1.05006 -2.9999,8.82707 -7.06567,8.88554 z m -29.45701,17.51929 -4.29948,-3.1608 -3.86881,-0.60229 2.49687,-5.49803 -0.0854,-5.96596 5.24845,0.5779 5.31259,7.98743 z m 71.33268,56.84439 1.45335,1.07438 1.97983,-0.0268 3.04368,2.9943 9.74565,2.57864 -3.94965,6.92212 -1.38652,7.34158 -2.08107,1.63759 -3.14946,-1.17217 0.0542,2.63311 -5.60807,5.46003 -0.51126,4.63238 3.52205,-1.30452 2.09805,4.63993 -0.48109,2.9443 1.79249,3.94533 -2.70644,2.95554 1.30863,8.06372 3.86461,1.56841 -1.17128,4.44205 -7.14406,5.18623 -14.35293,-4.01632 -11.12053,2.17822 -1.47611,6.01739 -8.82162,0.35768 -7.77889,-5.69659 -2.96267,1.82299 -12.9954,-6.50475 -2.30632,-4.35264 4.68513,-5.51591 4.40687,-20.01509 -5.55467,-11.89288 -4.29082,-6.00877 -9.87025,-5.80864 0.68365,-7.62248 9.20818,-0.68068 10.98037,4.54768 -0.30761,-12.11047 5.69792,5.47151 16.86165,-6.0236 3.06066,-8.36814 6.05852,-1.49508 0.53305,3.81783 3.10115,0.53878 2.67496,4.60674 4.16975,5.39937 3.54297,-0.4224 z m 16.88919,72.76239 4.97834,-3.58553 0.83847,8.75782 -2.92272,7.71722 -3.29849,-2.28463 -1.36629,-6.94733 z m 111.23754,-300.82313 0.42061,9.29189 8.52895,7.63745 -3.23629,10.13356 7.77503,13.54957 -2.01833,11.02416 5.96665,8.44626 -1.04821,8.11055 9.12248,6.9992 -1.08953,6.36524 -4.16664,7.509 -10.02385,16.41715 -10.24709,2.09722 -9.64514,5.21903 -9.20249,3.13465 -3.75572,-6.10837 -5.78453,-3.41536 0.58895,-11.56419 -3.31642,-10.62236 2.2031,-7.05021 4.36008,-7.91981 11.08022,-14.26394 3.23148,-2.87311 -1.05781,-5.18549 -7.61647,-5.21386 -2.13676,-4.84226 -1.68409,-19.68262 -8.15828,-8.28103 -6.73233,-6.17718 2.6158,-3.63168 5.72891,6.72344 6.16386,-1.17172 5.38083,2.76896 3.98891,-6.2439 1.32425,-10.07791 6.64058,-5.27387 6.58584,4.59212 z m -8.54487,138.59428 0.12816,-6.65372 -2.06879,1.61019 -4.06075,-3.77415 -1.03484,-6.51404 7.13528,-3.80021 7.15528,-2.33782 6.46681,1.29624 5.95397,-1.10104 1.08267,1.95026 -3.38414,7.02671 2.96906,10.2326 -2.11475,3.91602 -4.9854,0.44431 -5.5985,-3.60807 -2.70557,-1.06827 z m -236.14919,151.18684 1.97826,-6.9653 -2.04836,-4.97516 11.89008,-4.90027 8.4861,3.64752 9.75984,1.8202 7.42225,3.14682 6.14351,0.5195 11.79484,2.30844 2.30632,4.35264 12.9954,6.50475 2.96267,-1.82299 7.77889,5.69659 8.82162,-0.35768 -0.24909,5.95578 -7.96503,5.88701 -9.93858,0.86988 -1.13471,3.34257 -5.41098,4.87113 -4.11692,7.77071 2.21082,6.07579 -5.12061,3.85398 -2.62295,6.20278 -6.24729,1.08191 -6.74833,6.81114 -10.08708,-1.57053 -7.5275,-1.50264 -5.62734,2.5489 -3.70498,3.15903 -3.78813,-1.5526 -2.28724,-3.84858 -1.07453,-6.10334 -7.02036,-3.09665 0.0339,-3.31604 3.64845,-3.11864 1.59525,-2.44232 -2.04113,-3.47218 3.41884,-6.0462 -1.78693,-6.58033 3.45126,-0.11828 1.24182,-4.66203 1.51545,-1.17558 1.6974,-7.64732 3.98686,-2.08197 -1.08778,-5.34083 -4.25933,-1.24435 -1.52699,0.98907 -4.3321,-0.91743 -0.81737,-5.22822 -3.29257,0.77775 z m 146.83699,-123.73162 1.43571,5.42084 -4.1073,1.47628 -4.68293,-1.6466 -2.15904,-6.28254 0.55279,-11.35765 1.17909,-2.94264 1.95385,-3.20862 5.39157,-0.40852 2.27498,-2.92056 4.97048,-3.0238 -0.39803,5.75503 -1.96372,3.64737 0.58115,3.14112 3.24889,1.73498 -1.65987,4.13739 -1.78481,-1.27257 z m 17.14218,-6.44057 1.88469,5.6203 -3.9967,8.81437 -6.36489,-6.43239 -0.72873,-4.59821 z m -15.70647,11.86141 -0.0839,4.24104 6.34352,2.82475 -0.26085,3.91685 6.55887,-1.84531 3.684,-2.95226 7.08789,4.44498 3.0189,3.55457 1.47023,5.47263 -1.83019,2.90399 2.31974,3.79886 1.62974,5.80659 -0.54665,3.65949 2.68187,6.82107 -2.95147,1.14341 -1.73898,-1.25374 -1.70108,1.99768 -4.85577,2.04538 -2.52715,2.53492 -4.97245,2.17865 1.08167,3.16747 0.63181,4.47755 3.45886,2.62884 3.82934,4.59722 -2.56113,4.7715 -2.52483,1.27284 0.87869,6.77912 -0.66524,1.76815 -2.17012,-2.10618 -3.33529,-0.45542 -5.10763,1.72427 -6.17587,-0.69686 -1.066,2.76703 -3.477,-3.0606 -2.11145,0.46077 -7.32695,-3.59268 -1.58432,2.15896 -5.91983,-0.48091 1.38652,-7.34158 3.94965,-6.92212 -9.74565,-2.57864 -3.04368,-2.9943 0.80311,-4.59932 -1.20749,-2.48342 1.37079,-7.06417 -0.21551,-11.28051 3.9726,0.31864 1.96401,-3.91239 2.36199,-9.6402 -0.94681,-3.78057 1.43602,-2.14536 5.40508,-0.21569 1.00557,2.41283 4.7054,-5.1035 -1.25622,-4.10242 0.0834,-6.21222 4.68293,1.6466 z m 45.53978,69.02897 -3.20588,-1.92971 -3.22725,0.60358 -5.35809,-3.17837 -2.41675,0.75763 -3.93321,4.32603 -5.07066,-3.4435 -3.82934,-4.59722 -3.45886,-2.62884 -0.63181,-4.47755 -1.08167,-3.16747 4.97245,-2.17865 2.52715,-2.53492 4.85577,-2.04538 1.70108,-1.99768 1.73898,1.25374 2.95147,-1.14341 3.20305,3.43708 5.02505,0.82005 -0.39154,2.96286 3.73967,2.14171 0.92724,-2.77913 4.64094,1.14542 0.74971,3.31506 5.02384,0.43134 3.36142,5.11144 -2.09156,0.0712 -0.98674,1.92677 -1.52822,0.51959 -0.42645,2.37752 -1.28768,0.5082 -0.15835,1.04354 -2.33361,1.09685 -3.04851,-0.12375 z m -51.52771,10.36028 0.1604,1.88288 -1.20471,2.46804 3.0903,2.02112 3.61996,0.44062 -0.75649,4.26201 -3.21863,1.53418 -5.19573,-1.56565 -1.77019,4.09723 -3.43669,0.17416 -1.12174,-1.74484 -4.22084,3.26873 -3.51931,0.22304 -2.93297,-2.4498 -2.09805,-4.63993 -3.52205,1.30452 0.51126,-4.63238 5.60807,-5.46003 -0.0542,-2.63311 3.14946,1.17217 2.08107,-1.63759 5.91983,0.48091 1.58432,-2.15896 z m 92.24644,-69.05833 6.15558,-0.40988 6.54884,-4.73697 0.88034,-6.21751 4.76439,-4.06651 -1.0846,-4.86971 3.52735,-2.2841 6.10761,-4.9272 6.80491,1.85367 1.25224,2.64517 3.04556,-1.71644 6.41304,1.69805 1.36439,5.00667 -0.91642,3.12873 5.01164,6.51321 2.85536,1.54444 -0.0988,1.99578 4.58922,1.25295 2.30254,2.58979 -2.09861,2.70677 -5.24678,0.42731 -1.06564,1.14533 2.04467,3.32244 2.63541,6.63921 -5.48264,1.41527 -1.66488,2.5801 0.35429,5.38663 -2.80419,-0.57108 -5.87007,1.28199 -2.04293,-2.25181 -2.25985,2.12812 -2.622,-1.22358 -5.24157,0.42798 -7.63034,-1.77601 -6.7039,-0.10504 -5.07323,0.65807 -3.3748,3.1859 -3.1157,0.73364 -0.49499,-4.78923 -2.44101,-4.75301 3.7561,-2.5278 -0.28661,-4.26157 -2.13193,-4.02992 z m -25.0862,97.00452 2.61947,-0.10087 -1.66243,4.59428 3.71999,3.72668 -0.92552,4.92116 -1.71328,0.52836 -1.36509,0.97164 -2.32325,2.38074 -0.88443,5.72028 -6.69792,-3.66121 -2.90817,-4.2512 -2.90771,-2.15107 -3.44524,-3.81386 -1.62503,-3.1147 -3.59541,-4.76923 1.47067,-4.26773 2.63675,2.28659 1.53976,-2.1492 3.38846,-0.24029 6.23823,1.52746 5.02445,-0.33311 z m 26.95658,5.0258 2.41105,3.98346 2.79145,-0.94764 5.81866,1.10296 10.84562,-0.42849 3.37934,-2.92715 8.36835,-3.30892 5.69163,3.04749 4.48843,0.56305 -3.32362,4.66885 -1.80303,7.60454 3.03157,5.44745 -6.56442,-0.61999 -7.29486,4.0007 0.37583,5.00989 -6.79269,1.67483 -5.63841,-3.06258 -5.83184,3.32745 -5.62997,0.0652 -1.02883,-6.61038 -4.01897,-3.01951 1.18776,-1.45816 -0.89645,-1.22365 0.98753,-3.28457 2.64647,-3.41035 -3.90884,-4.14429 -0.91461,-3.62806 z m -133.81325,-76.47583 4.80087,1.36899 6.35422,-1.60356 3.76566,5.05397 3.45783,2.78626 -1.37079,7.06417 -1.79511,0.23164 -1.23369,5.80352 -5.49933,-5.2601 -3.54297,0.4224 -4.16975,-5.39937 -2.67496,-4.60674 -3.10115,-0.53878 -0.53305,-3.81783 z m 91.4376,38.03479 -0.4263,4.32696 -3.97457,0.0592 1.41969,2.23074 -2.26692,6.76114 -1.3249,1.69302 -6.20529,0.31261 -3.5918,2.32623 -5.89738,-0.78749 -10.13002,-2.88192 -1.50188,-3.68104 -7.05925,1.65255 -0.89957,1.92917 -4.21703,-1.65941 -3.61996,-0.44062 -3.0903,-2.02112 1.20471,-2.46804 -0.1604,-1.88288 2.11145,-0.46077 3.477,3.0606 1.066,-2.76703 6.17587,0.69686 5.10763,-1.72427 3.33529,0.45542 2.17012,2.10618 0.66524,-1.76815 -0.87869,-6.77912 2.52483,-1.27284 2.56113,-4.7715 5.07066,3.4435 3.93321,-4.32603 2.41675,-0.75763 5.35809,3.17837 3.22725,-0.60358 3.20588,1.92971 -0.53818,1.32869 z m 28.51854,63.55992 -0.84579,3.51842 1.31295,4.22662 3.29231,2.28834 0.0129,2.73553 -2.40972,1.58767 -0.31547,3.29518 -3.3098,5.07608 -1.36067,-0.66387 -0.24314,-2.26234 -4.45306,-3.17503 -0.88479,-4.79204 0.40926,-6.95064 0.89632,-3.14391 -1.36047,-1.59044 -0.60257,-3.17922 3.03172,-5.16708 0.55598,1.90161 1.9811,-1.00694 1.75044,2.66717 1.8132,1.00949 z" />
    <text
       xml:space="preserve"
       style="font-style:normal;font-variant:normal;font-weight:300;font-stretch:normal;font-size:15.93445401px;line-height:100%;font-family:'Open Sans';-inkscape-font-specification:'Open Sans, Light';font-variant-ligatures:normal;font-variant-caps:normal;font-variant-numeric:normal;font-feature-settings:normal;text-align:start;letter-spacing:0px;word-spacing:0px;writing-mode:lr;text-anchor:start;fill:#000000;fill-opacity:1;stroke:none;stroke-width:1.49385512px;stroke-linecap:butt;stroke-linejoin:miter;stroke-opacity:1;"
       x="327.664"
       y="771.10321"
       id="text2558"><tspan
         sodipodi:role="line"
         id="tspan2560">data from US ITC, total exports in 2017 of wood pellets</tspan></text>
  </g>
  <g
     class="layer coastlines"
     id="g1026"
     transform="matrix(1.8594694,0,0,1.8594694,-482.69891,-459.15921)" />
  <g
     class="layer lakes"
     id="g1056"
     transform="matrix(1.8594694,0,0,1.8594694,-482.69891,-459.15921)" />
  <g
     class="layer frontplot"
     id="g1060"
     transform="matrix(1.8594694,0,0,1.8594694,-482.69891,-459.15921)">
    <g
       class="scatterlayer"
       id="g1058" />
  </g>
  <defs
     id="topdefs-960b2a">
    <g
       class="clips"
       id="g1070" />
  </defs>
  <g
     class="infolayer"
     id="g1139">
    <g
       class="cb95a0edc2-de0b-11e8-9a52-4ceb42e627f0 colorbar"
       transform="translate(80,100)"
       id="g1129">
      <rect
         class="cbbg"
         x="771.5"
         y="-0.5"
         width="135.609375"
         height="821"
         style="fill: rgb(0, 0, 0); fill-opacity: 0; stroke: rgb(68, 68, 68); stroke-opacity: 1; stroke-width: 0;"
         id="rect1079" />
      <g
         class="cbfills"
         transform="translate(0,66)"
         id="g1083">
        <rect
           class="cbfill"
           x="782"
           width="30"
           y="0"
           height="744"
           style="stroke: none; fill: url('#g960b2a-cb95a0edc2-de0b-11e8-9a52-4ceb42e627f0');"
           id="rect1081" />
      </g>
      <g
         class="cblines"
         transform="translate(0,66)"
         id="g1085" />
      <text
         x="820.40002"
         y="822.95001"
         style="font-size:37.03703703px;font-family:'Open Sans';text-anchor:start;white-space:pre;fill:#000000;fill-opacity:1;-inkscape-font-specification:'Open Sans, Light';font-weight:300;font-style:normal;font-stretch:normal;font-variant:normal;text-align:start;writing-mode:lr;font-variant-ligatures:normal;font-variant-caps:normal;font-variant-numeric:normal;font-feature-settings:normal;"
         id="text1087">0</text>
      <text
         x="820.40002"
         y="729.38"
         style="font-size:37.03703703px;font-family:'Open Sans';text-anchor:start;white-space:pre;fill:#000000;fill-opacity:1;-inkscape-font-specification:'Open Sans, Light';font-weight:300;font-style:normal;font-stretch:normal;font-variant:normal;text-align:start;writing-mode:lr;font-variant-ligatures:normal;font-variant-caps:normal;font-variant-numeric:normal;font-feature-settings:normal;"
         id="text1091">500</text>
      <text
         x="820.40002"
         y="635.81"
         style="font-size:37.03703703px;font-family:'Open Sans';text-anchor:start;white-space:pre;fill:#000000;fill-opacity:1;-inkscape-font-specification:'Open Sans, Light';font-weight:300;font-style:normal;font-stretch:normal;font-variant:normal;text-align:start;writing-mode:lr;font-variant-ligatures:normal;font-variant-caps:normal;font-variant-numeric:normal;font-feature-settings:normal;"
         id="text1095">1000</text>
      <text
         x="820.40002"
         y="542.23999"
         style="font-size:37.03703703px;font-family:'Open Sans';text-anchor:start;white-space:pre;fill:#000000;fill-opacity:1;-inkscape-font-specification:'Open Sans, Light';font-weight:300;font-style:normal;font-stretch:normal;font-variant:normal;text-align:start;writing-mode:lr;font-variant-ligatures:normal;font-variant-caps:normal;font-variant-numeric:normal;font-feature-settings:normal;"
         id="text1099">1500</text>
      <text
         x="820.40002"
         y="448.67001"
         style="font-size:37.03703703px;font-family:'Open Sans';text-anchor:start;white-space:pre;fill:#000000;fill-opacity:1;-inkscape-font-specification:'Open Sans, Light';font-weight:300;font-style:normal;font-stretch:normal;font-variant:normal;text-align:start;writing-mode:lr;font-variant-ligatures:normal;font-variant-caps:normal;font-variant-numeric:normal;font-feature-settings:normal;"
         id="text1103">2000</text>
      <text
         x="820.40002"
         y="355.10001"
         style="font-size:37.03703703px;font-family:'Open Sans';text-anchor:start;white-space:pre;fill:#000000;fill-opacity:1;-inkscape-font-specification:'Open Sans, Light';font-weight:300;font-style:normal;font-stretch:normal;font-variant:normal;text-align:start;writing-mode:lr;font-variant-ligatures:normal;font-variant-caps:normal;font-variant-numeric:normal;font-feature-settings:normal;"
         id="text1107">2500</text>
      <text
         x="820.40002"
         y="261.53"
         style="font-size:37.03703703px;font-family:'Open Sans';text-anchor:start;white-space:pre;fill:#000000;fill-opacity:1;-inkscape-font-specification:'Open Sans, Light';font-weight:300;font-style:normal;font-stretch:normal;font-variant:normal;text-align:start;writing-mode:lr;font-variant-ligatures:normal;font-variant-caps:normal;font-variant-numeric:normal;font-feature-settings:normal;"
         id="text1111">3000</text>
      <text
         x="820.40002"
         y="167.96001"
         style="font-size:37.03703703px;font-family:'Open Sans';text-anchor:start;white-space:pre;fill:#000000;fill-opacity:1;-inkscape-font-specification:'Open Sans, Light';font-weight:300;font-style:normal;font-stretch:normal;font-variant:normal;text-align:start;writing-mode:lr;font-variant-ligatures:normal;font-variant-caps:normal;font-variant-numeric:normal;font-feature-settings:normal;"
         id="text1115">3500</text>
      <g
         class="cbtitleunshift"
         transform="translate(-80,-100)"
         id="g1125">
        <g
           class="cbtitle"
           transform="translate(-0.5,-0.5)"
           id="g1123">
          <text
             class="ycb95a0edc2-de0b-11e8-9a52-4ceb42e627f0title"
             x="862.14"
             y="140.75"
             text-anchor="start"
             style="font-family: 'Open Sans'; font-size: 37px; fill: rgb(0, 0, 0); opacity: 1; font-weight: normal; white-space: pre;"
             id="text1121">mt</text>
        </g>
      </g>
      <rect
         class="cboutline"
         x="782"
         y="66"
         width="30"
         height="744"
         style="stroke: rgb(68, 68, 68); stroke-opacity: 1; fill: none; stroke-width: 1;"
         id="rect1127" />
    </g>
    <text
       id="text1135"
       style="font-style:normal;font-variant:normal;font-weight:bold;font-stretch:normal;font-size:51.85185186px;font-family:Arvo;-inkscape-font-specification:'Arvo, Bold';font-variant-ligatures:normal;font-variant-caps:normal;font-variant-numeric:normal;font-feature-settings:normal;text-align:center;writing-mode:lr;text-anchor:middle;white-space:pre;opacity:1;fill:#000000;"
       y="50"
       x="500"
       class="gtitle">
      <tspan
         sodipodi:role="line"
         id="tspan959"
         x="500"
         y="50">Pellet exports to Europe (mt)</tspan>
    </text>
    <text
       xml:space="preserve"
       style="font-style:normal;font-variant:normal;font-weight:300;font-stretch:normal;font-size:44.44444275px;line-height:100%;font-family:'Open Sans';-inkscape-font-specification:'Open Sans, Light';font-variant-ligatures:normal;font-variant-caps:normal;font-variant-numeric:normal;font-feature-settings:normal;text-align:center;letter-spacing:0px;word-spacing:0px;writing-mode:lr-tb;text-anchor:middle;fill:#000000;fill-opacity:1;stroke:none;stroke-width:2.77777791px;stroke-linecap:butt;stroke-linejoin:miter;stroke-opacity:1"
       x="500"
       y="104.88248"
       id="text963"><tspan
         sodipodi:role="line"
         id="tspan961"
         x="500"
         y="104.88248"
         style="font-style:normal;font-variant:normal;font-weight:300;font-stretch:normal;font-size:44.44444275px;font-family:'Open Sans';-inkscape-font-specification:'Open Sans, Light';font-variant-ligatures:normal;font-variant-caps:normal;font-variant-numeric:normal;font-feature-settings:normal;text-align:center;writing-mode:lr-tb;text-anchor:middle;stroke-width:2.77777791px">from US Southeast in 2017</tspan></text>
  </g>
</svg>
